<?xml version="1.0" standalone="no"?>
<!DOCTYPE svg PUBLIC "-//W3C//DTD SVG 20010904//EN"
 "http://www.w3.org/TR/2001/REC-SVG-20010904/DTD/svg10.dtd">
<svg version="1.0" xmlns="http://www.w3.org/2000/svg"
 width="1600.000000pt" height="1535.000000pt" viewBox="0 0 1600.000000 1535.000000"
 preserveAspectRatio="xMidYMid meet">

<g transform="translate(0.000000,1535.000000) scale(0.100000,-0.100000)"
fill="#000000" stroke="none">
<path d="M1600 15304 c-224 -42 -379 -89 -515 -155 -45 -22 -86 -39 -93 -39
-7 0 -12 -4 -12 -9 0 -5 -8 -11 -17 -14 -70 -23 -270 -173 -396 -296 -288
-282 -455 -611 -532 -1046 -23 -129 -25 -656 -25 -6065 0 -5364 2 -5906 24
-6058 34 -233 133 -519 236 -677 14 -22 31 -52 39 -66 22 -44 177 -235 247
-305 69 -68 257 -222 284 -232 8 -3 17 -8 20 -11 12 -14 131 -81 202 -114 212
-98 438 -159 662 -177 183 -14 12441 -13 12586 1 180 19 205 23 330 55 320 83
597 243 835 480 240 241 388 499 486 849 l34 120 0 6105 c0 3358 -3 6130 -7
6160 -4 30 -15 80 -23 110 -9 30 -17 62 -19 70 -35 145 -182 446 -284 579
-160 210 -358 388 -560 503 -72 41 -228 114 -272 128 -25 7 -49 16 -55 20 -18
12 -195 61 -195 54 0 -3 -8 0 -18 5 -10 5 -42 12 -72 15 -30 4 -75 10 -100 16
-28 6 -2431 9 -6380 8 -5406 0 -6346 -2 -6410 -14z m12695 -324 c107 -10 167
-20 250 -41 94 -25 121 -33 129 -41 6 -4 16 -8 24 -8 20 0 191 -80 239 -112
23 -15 46 -28 52 -28 6 0 11 -4 11 -9 0 -5 8 -12 18 -15 10 -4 27 -14 38 -24
10 -9 37 -30 59 -47 53 -39 203 -189 240 -240 17 -22 33 -42 36 -45 15 -11
114 -179 145 -245 29 -63 68 -166 93 -250 10 -30 22 -91 41 -200 13 -80 14
-11922 1 -11992 -6 -26 -15 -75 -21 -108 -18 -96 -57 -215 -101 -313 -16 -34
-29 -64 -29 -66 0 -9 -97 -165 -124 -201 -56 -73 -61 -78 -106 -129 -59 -67
-79 -85 -185 -170 -207 -164 -410 -255 -695 -307 -63 -12 -1052 -14 -6400 -14
-5932 0 -6330 1 -6405 17 -44 10 -101 22 -127 27 -105 23 -291 103 -411 178
-144 89 -312 243 -409 373 -153 206 -229 380 -286 655 -16 74 -17 519 -17
6045 0 4901 2 5977 13 6035 34 177 71 299 129 418 40 83 107 200 126 219 6 7
25 31 42 53 128 174 340 347 538 440 178 85 331 125 567 148 92 9 12424 6
12525 -3z"/>
<path d="M2970 14675 l0 -135 230 0 230 0 2 -657 3 -658 163 -3 162 -2 0 660
0 660 235 0 235 0 0 135 0 135 -630 0 -630 0 0 -135z"/>
<path d="M12790 14758 c-32 -19 -73 -43 -125 -72 -11 -7 -46 -27 -77 -45 l-58
-33 0 -119 0 -119 -70 0 c-40 0 -70 -4 -70 -10 0 -15 -15 -12 -66 11 -58 28
-190 31 -245 6 -32 -14 -85 -66 -131 -128 -18 -23 -18 -22 -18 49 l0 72 -140
0 -140 0 0 -575 0 -576 148 3 147 3 6 335 c4 184 11 354 17 378 13 59 52 131
83 154 54 41 139 40 215 -2 l30 -17 16 51 c22 69 66 187 73 194 3 3 5 -38 5
-91 l0 -97 70 0 70 0 0 -354 c0 -293 3 -360 15 -390 8 -20 15 -39 16 -43 0
-18 40 -73 62 -88 14 -9 49 -25 79 -36 62 -23 197 -25 263 -4 22 7 52 16 68
19 24 6 27 11 27 49 0 23 -5 77 -12 120 -11 72 -13 78 -32 72 -12 -4 -49 -9
-83 -12 -94 -8 -91 -19 -95 355 l-3 312 103 0 102 0 0 120 0 119 -101 3 -100
3 -1 203 c0 111 -3 202 -6 202 -4 0 -23 -10 -42 -22z"/>
<path d="M4769 14391 c-47 -10 -100 -43 -130 -82 -62 -82 -58 -82 -59 -6 l0
67 -145 0 -145 0 0 -575 0 -576 153 3 152 3 6 340 c6 342 9 374 35 432 8 17
14 36 14 41 0 17 69 71 98 78 15 3 32 7 39 9 15 5 81 -15 121 -37 31 -17 33
-17 38 -1 3 10 10 27 14 38 15 35 70 202 70 213 0 31 -184 69 -261 53z"/>
<path d="M5475 14391 c-117 -16 -208 -60 -264 -128 -34 -41 -91 -151 -91 -177
0 -17 32 -27 150 -46 41 -6 85 -14 97 -16 18 -3 27 4 42 33 39 76 90 105 186
105 128 1 178 -33 190 -128 8 -54 0 -67 -45 -77 -14 -3 -51 -12 -82 -21 -32
-9 -72 -18 -90 -21 -208 -37 -323 -81 -392 -149 -135 -136 -119 -383 30 -489
160 -114 401 -99 564 35 19 15 37 28 41 28 3 0 14 -27 24 -60 l18 -61 151 3
c94 2 150 7 149 13 -1 6 -15 44 -30 85 l-27 75 -2 310 c-3 443 -9 492 -69 563
-36 43 -115 91 -177 108 -63 17 -289 26 -373 15z m313 -725 c-7 -136 -30 -175
-131 -221 -133 -63 -259 -1 -261 128 -1 43 3 52 35 81 20 19 59 40 90 49 58
17 248 65 263 66 5 1 7 -44 4 -103z"/>
<path d="M6965 14391 c-98 -15 -200 -69 -262 -140 l-33 -36 0 78 0 77 -145 0
-145 0 0 -575 0 -576 153 3 152 3 5 370 6 371 29 59 c49 99 158 155 258 133
51 -10 107 -63 127 -118 9 -25 14 -150 17 -427 l6 -393 149 0 149 0 -3 463
c-2 312 -7 468 -14 482 -6 11 -22 42 -35 69 -27 56 -88 106 -164 135 -58 22
-178 32 -250 22z"/>
<path d="M8050 14394 c-51 -6 -141 -25 -160 -34 -8 -4 -28 -14 -45 -21 -55
-25 -129 -111 -153 -176 -24 -65 -28 -167 -9 -213 6 -14 11 -27 12 -30 4 -19
33 -61 64 -93 59 -62 136 -93 387 -157 176 -45 218 -61 233 -88 29 -54 -2
-110 -77 -139 -68 -26 -193 -24 -248 5 -50 26 -88 69 -104 117 -12 36 -12 36
-58 30 -26 -4 -69 -10 -97 -15 -27 -5 -76 -12 -107 -16 -69 -8 -70 -12 -27
-99 61 -124 191 -218 348 -251 122 -26 384 -9 428 28 7 6 13 8 13 4 0 -10 96
48 131 79 76 67 119 161 119 259 0 55 -16 135 -30 146 -4 3 -15 20 -26 38 -26
46 -167 128 -254 147 -8 2 -78 20 -155 40 -77 20 -154 40 -172 45 -62 15 -98
43 -101 79 -6 64 49 92 183 92 116 1 170 -21 205 -84 13 -23 24 -43 25 -45 1
-1 36 4 76 12 41 8 104 20 142 26 37 7 67 17 67 22 0 27 -67 138 -109 179 -80
79 -166 107 -346 113 -66 2 -136 2 -155 0z"/>
<path d="M9525 14394 c-22 -3 -49 -8 -60 -13 -68 -27 -123 -61 -167 -103 -27
-26 -52 -48 -54 -48 -2 0 -4 32 -4 70 l0 70 -145 0 -145 0 0 -790 0 -790
-2847 -1 c-1567 -1 -2870 -2 -2898 -4 -46 -3 -82 -11 -160 -37 -62 -21 -173
-82 -216 -119 -24 -21 -47 -39 -50 -39 -12 0 -111 -133 -143 -192 -19 -35 -45
-94 -58 -133 l-23 -70 -5 -2935 -5 -2935 -22 46 c-41 88 -103 139 -208 170
-28 8 -243 13 -707 16 l-668 5 0 -156 0 -156 620 0 c671 0 663 1 691 -53 7
-12 12 -52 11 -89 -1 -64 0 -68 22 -68 12 0 65 -9 116 -20 51 -11 99 -20 107
-20 7 0 18 21 25 48 11 39 14 -212 18 -1418 6 -1645 -2 -1487 82 -1657 88
-178 247 -312 446 -376 l67 -22 4805 -5 c2643 -3 4839 -1 4880 3 133 14 257
66 375 156 70 53 71 54 107 103 15 20 33 42 41 50 20 21 87 159 98 203 38 146
38 52 38 4587 1 3013 -2 4401 -10 4455 -41 310 -220 528 -515 630 l-79 28
-1809 3 c-996 1 -1811 4 -1813 6 -2 2 -2 128 -1 282 l3 278 40 -35 c92 -83
181 -119 290 -119 211 0 391 155 454 390 47 178 21 435 -57 570 -53 93 -150
176 -244 211 -53 19 -156 29 -223 23z m49 -249 c54 -9 126 -83 154 -158 38
-99 31 -317 -13 -412 -31 -67 -131 -135 -199 -135 -13 0 -43 7 -69 16 -57 19
-150 115 -162 166 -4 18 -9 38 -10 43 -19 67 -25 163 -15 228 21 122 55 180
136 233 27 18 96 34 124 29 8 -2 33 -6 54 -10z m3255 -1700 c115 -27 195 -83
256 -179 64 -102 65 -109 65 -538 l0 -388 -5136 0 -5135 0 3 398 c4 369 6 400
24 447 42 103 97 168 187 219 102 58 -229 54 4922 55 4205 1 4757 -1 4814 -14z
m-4419 -1235 c246 -16 495 -43 635 -70 28 -5 66 -12 85 -15 75 -12 285 -56
410 -87 168 -40 551 -155 625 -187 11 -5 74 -30 140 -56 66 -26 140 -57 165
-67 148 -66 322 -150 405 -196 33 -19 85 -48 115 -65 30 -17 82 -47 115 -68
33 -21 85 -53 115 -70 30 -18 57 -36 60 -39 3 -4 37 -28 75 -55 105 -72 119
-83 260 -197 122 -97 159 -132 305 -278 144 -144 213 -218 254 -275 16 -22 33
-42 37 -45 21 -15 219 -303 219 -320 0 -5 3 -10 8 -10 4 0 12 -10 18 -23 7
-12 48 -93 93 -179 45 -86 93 -187 106 -225 14 -37 29 -77 34 -88 40 -91 94
-293 121 -455 71 -408 45 -827 -75 -1230 -18 -62 -33 -106 -46 -135 -5 -11
-20 -50 -33 -87 -37 -101 -200 -419 -217 -426 -5 -2 -9 -8 -9 -13 0 -28 -216
-324 -335 -459 -103 -117 -364 -369 -455 -440 -25 -19 -49 -40 -55 -46 -5 -6
-26 -22 -45 -35 -19 -13 -44 -32 -55 -42 -25 -23 -199 -142 -326 -223 -209
-134 -528 -298 -747 -385 -42 -17 -81 -34 -87 -37 -5 -4 -12 -7 -15 -8 -3 0
-12 -4 -20 -7 -71 -31 -382 -136 -500 -168 -143 -40 -295 -80 -335 -88 -190
-40 -296 -61 -330 -66 -22 -4 -56 -10 -75 -15 -31 -7 -83 -15 -185 -26 -16 -2
-64 -8 -105 -13 -83 -11 -286 -30 -310 -29 -8 0 -117 -5 -242 -12 -181 -11
-274 -11 -460 -1 -248 12 -429 26 -543 42 -38 5 -90 11 -115 14 -25 3 -85 12
-135 21 -49 8 -103 17 -120 20 -237 39 -611 133 -851 212 -356 119 -754 295
-1011 448 -43 26 -87 52 -98 58 -19 11 -41 25 -155 97 -25 16 -49 32 -55 37
-5 4 -39 28 -75 52 -36 24 -67 46 -70 49 -3 3 -39 31 -80 62 -41 31 -84 65
-95 75 -11 11 -45 39 -75 64 -86 70 -344 327 -413 410 -34 41 -64 77 -67 80
-4 3 -30 37 -59 75 -29 39 -59 78 -66 87 -7 9 -19 27 -26 40 -6 13 -15 25 -19
28 -11 7 -108 164 -148 240 -88 167 -109 209 -130 260 -13 30 -27 64 -32 75
-118 280 -190 651 -190 990 0 519 142 995 438 1471 39 63 53 84 110 164 142
201 428 510 602 650 30 25 57 47 60 50 15 16 120 100 150 120 19 13 37 27 40
30 3 4 68 49 145 100 77 50 151 100 165 109 82 57 420 237 560 299 25 11 65
29 90 40 25 11 68 29 95 42 141 61 418 158 600 209 61 17 124 35 140 40 32 9
69 18 205 49 157 36 185 42 215 48 17 2 37 7 45 9 8 3 38 7 65 11 27 3 53 7
56 10 4 2 41 9 81 14 40 5 89 11 108 14 454 61 850 75 1320 46z m4740 -7620
c0 -376 -1 -384 -50 -478 -30 -57 -114 -137 -175 -167 -28 -14 -81 -30 -116
-36 -41 -6 -1753 -9 -4839 -7 -4025 3 -4780 5 -4805 17 -16 7 -41 19 -55 25
-55 24 -120 82 -156 137 -68 105 -67 97 -71 499 l-5 365 5136 0 5136 0 0 -355z"/>
<path d="M7630 11027 c-3 -3 -53 -8 -112 -11 -59 -3 -136 -10 -170 -15 -35 -5
-103 -15 -153 -21 -49 -6 -110 -15 -135 -20 -25 -4 -79 -14 -120 -21 -41 -6
-100 -18 -130 -26 -30 -7 -89 -20 -130 -29 -134 -27 -580 -162 -675 -204 -11
-4 -69 -29 -130 -53 -358 -145 -667 -308 -990 -523 -105 -69 -355 -266 -455
-358 -123 -113 -311 -309 -362 -376 -14 -19 -38 -48 -52 -65 -76 -86 -316
-465 -316 -499 0 -7 -4 -16 -9 -22 -40 -41 -180 -444 -210 -604 -30 -167 -36
-238 -35 -465 0 -224 7 -299 35 -420 5 -22 11 -53 13 -70 10 -83 80 -308 155
-500 l27 -70 540 -7 c296 -4 902 -9 1345 -10 l806 -3 51 105 c28 58 98 203
157 322 58 119 105 219 105 222 0 3 17 43 39 88 94 202 111 239 111 243 0 3
21 48 46 102 83 176 134 285 134 289 0 2 19 43 41 91 23 49 52 111 64 138 28
61 238 495 265 548 l19 37 -1218 0 -1219 0 49 -167 c27 -93 49 -176 49 -185 0
-17 32 -18 531 -18 l531 0 -35 -62 c-19 -35 -59 -110 -90 -168 -30 -58 -66
-125 -79 -150 -14 -25 -62 -117 -108 -205 -45 -88 -86 -164 -90 -170 -4 -5
-31 -55 -60 -110 -28 -55 -65 -125 -82 -155 -16 -30 -55 -104 -86 -164 -32
-59 -73 -138 -92 -175 l-35 -66 -486 -3 -486 -2 -11 37 c-22 71 -50 178 -62
233 -7 30 -16 73 -21 95 -37 175 -51 428 -34 615 16 165 18 177 51 315 25 103
55 200 67 212 4 3 7 12 7 19 0 12 13 42 68 164 19 42 112 197 156 260 110 159
343 403 496 520 159 120 368 260 391 260 5 0 9 3 9 8 0 4 10 12 23 18 12 6 81
40 152 76 146 74 404 187 465 203 3 1 12 5 20 8 132 58 549 174 780 218 200
37 360 62 515 80 274 31 694 48 925 37 85 -4 186 -9 223 -10 l69 -3 30 75 c17
41 39 94 49 117 11 24 19 46 19 51 0 5 9 27 20 50 11 22 20 48 20 56 0 8 4 17
9 20 5 3 12 18 16 33 3 15 15 46 26 70 24 53 24 50 -8 56 -16 2 -71 14 -123
27 -116 27 -184 38 -470 75 -61 8 -634 19 -640 12z"/>
<path d="M9325 10767 c-48 -96 -308 -609 -520 -1022 -81 -159 -198 -389 -260
-510 -208 -409 -357 -699 -450 -880 -86 -166 -227 -445 -525 -1030 -64 -126
-169 -332 -233 -458 l-117 -227 586 2 c510 3 588 5 595 18 8 14 134 273 359
735 59 121 164 335 232 475 69 140 185 377 257 525 73 149 187 380 253 515 66
135 175 355 240 490 230 471 290 590 300 590 19 0 280 -139 286 -152 2 -5 9
-8 16 -8 7 0 21 -8 32 -17 10 -10 48 -38 84 -62 36 -25 67 -48 70 -51 3 -3 23
-19 45 -36 84 -62 325 -300 396 -391 16 -21 36 -46 44 -55 8 -10 26 -36 41
-58 l27 -40 484 0 484 0 -23 29 c-13 15 -50 61 -82 101 -218 269 -559 600
-813 790 -59 45 -297 206 -346 236 -27 16 -65 39 -85 51 -21 13 -53 30 -72 40
-19 9 -37 20 -40 24 -8 10 -382 189 -395 189 -2 0 -35 14 -72 31 -38 17 -72
32 -78 33 -5 1 -14 4 -20 7 -13 8 -78 29 -88 29 -4 -1 -20 6 -35 14 -28 15
-233 83 -335 111 -31 8 -82 22 -112 30 -31 8 -64 15 -73 15 -11 -1 -31 -29
-57 -83z"/>
<path d="M11093 8820 c-722 -4 -834 -7 -846 -20 -13 -14 -91 -162 -339 -648
-110 -217 -175 -342 -392 -767 -77 -148 -199 -388 -273 -532 l-134 -263 1101
0 c1046 0 1100 -1 1090 -17 -16 -27 -127 -172 -191 -250 -72 -87 -313 -325
-404 -397 -38 -31 -86 -69 -105 -84 -187 -151 -564 -362 -840 -472 -128 -51
-270 -102 -335 -120 -16 -5 -79 -23 -140 -40 -402 -113 -778 -160 -1265 -161
-407 0 -654 24 -1040 102 -98 19 -136 29 -395 99 -227 61 -640 234 -864 362
-46 26 -86 48 -88 48 -2 0 -16 8 -31 19 -15 10 -88 58 -162 106 -74 49 -137
91 -140 95 -3 3 -21 17 -40 30 -19 13 -41 30 -48 37 -8 7 -30 25 -50 40 -42
31 -245 214 -250 226 -5 11 -954 9 -950 -3 10 -31 343 -347 486 -463 214 -171
371 -283 552 -394 47 -28 90 -55 96 -60 15 -12 50 -32 134 -76 41 -22 106 -57
143 -78 38 -22 70 -39 73 -39 2 0 64 -29 139 -65 75 -36 138 -65 141 -65 2 0
23 -8 47 -19 23 -10 69 -29 102 -41 33 -13 65 -26 70 -30 6 -4 57 -23 115 -43
58 -20 137 -47 175 -60 39 -14 90 -30 115 -37 25 -7 72 -22 105 -33 33 -10 69
-21 80 -22 11 -2 45 -11 75 -19 50 -15 172 -45 275 -67 454 -100 1061 -152
1514 -129 261 13 541 41 704 70 31 5 81 14 110 19 273 48 698 170 917 263 14
6 34 14 45 18 194 73 630 301 740 388 6 4 28 18 50 31 79 46 258 185 446 347
85 74 315 315 370 389 12 17 35 44 51 61 40 43 258 354 258 369 0 2 20 36 45
75 25 39 81 142 125 230 l80 160 -875 0 c-481 0 -875 3 -875 6 0 3 29 65 64
137 59 123 88 183 226 472 29 61 74 155 100 210 26 55 79 165 117 245 39 80
90 186 113 235 85 179 176 275 263 275 31 0 46 -8 86 -45 87 -81 159 -265 201
-510 7 -38 16 -91 21 -117 4 -25 11 -107 15 -182 l7 -136 364 0 363 0 0 169
c0 93 -4 203 -9 243 -6 40 -13 100 -16 133 -4 32 -8 62 -10 65 -2 3 -6 26 -10
50 -4 25 -13 70 -21 100 -8 30 -17 67 -19 81 -6 35 -70 229 -89 273 -9 20 -23
51 -31 69 -8 18 -28 63 -44 100 l-30 67 -163 -2 c-90 -1 -537 -5 -995 -8z"/>
<path d="M10715 14390 c-149 -24 -268 -96 -358 -214 -40 -52 -50 -72 -87 -176
-20 -55 -23 -86 -24 -195 -1 -152 9 -202 65 -320 46 -97 196 -222 286 -239 12
-3 30 -9 40 -14 31 -16 154 -33 222 -31 84 3 191 30 260 66 72 38 191 158 229
231 53 104 65 163 65 307 0 88 -5 146 -15 181 -47 153 -148 277 -287 352 -86
46 -280 72 -396 52z m226 -268 c86 -40 139 -122 159 -250 19 -116 -9 -249 -66
-319 -127 -155 -356 -126 -440 57 -82 176 -31 426 101 498 85 48 165 52 246
14z"/>
<path d="M1285 11713 c-83 -8 -205 -40 -205 -55 0 -4 -6 -8 -13 -8 -14 0 -65
-51 -89 -90 -60 -98 -76 -262 -37 -380 23 -70 56 -122 118 -187 l41 -43 -80 0
-80 0 0 -140 0 -140 575 0 575 0 0 150 0 150 -328 0 c-194 0 -352 4 -387 11
-141 26 -215 106 -216 233 -1 70 9 97 52 138 49 48 77 51 492 55 l387 5 0 149
0 149 -367 1 c-203 1 -377 2 -388 3 -11 1 -33 0 -50 -1z"/>
<path d="M14395 11513 c-126 -16 -284 -107 -358 -206 -148 -196 -163 -619 -31
-845 59 -101 175 -184 294 -211 25 -6 81 -11 126 -11 201 0 346 107 429 315
15 39 31 84 35 100 5 17 16 57 25 90 9 33 18 68 20 78 2 10 8 32 14 50 5 18
15 52 22 77 36 126 92 200 154 200 52 0 82 -16 110 -59 52 -78 67 -217 35
-324 -21 -72 -98 -138 -177 -153 l-34 -6 7 -162 c4 -88 8 -163 10 -165 5 -5
120 17 164 32 55 18 143 81 188 134 85 102 122 234 122 438 0 156 -17 245 -64
340 -45 90 -102 147 -185 189 -173 87 -370 52 -497 -87 -65 -73 -125 -191
-153 -305 -11 -43 -42 -160 -66 -246 -32 -120 -84 -198 -141 -212 -38 -10 -93
3 -135 30 -38 25 -88 84 -93 108 -2 7 -8 33 -15 56 -15 55 -12 173 8 232 33
102 97 162 215 200 l66 22 -5 56 c-21 217 -27 252 -44 251 -9 -1 -29 -4 -46
-6z"/>
<path d="M2040 10422 c-82 -41 -133 -46 -445 -44 -290 2 -416 -6 -480 -30 -60
-23 -129 -97 -157 -167 -40 -102 -52 -359 -22 -476 9 -33 18 -70 21 -82 3 -13
9 -23 14 -23 5 0 9 -7 9 -16 0 -29 107 -124 175 -155 35 -16 71 -29 80 -29 16
0 17 4 35 120 7 41 16 91 21 110 12 47 13 44 -23 58 -81 30 -112 87 -111 204
2 102 14 132 67 157 48 22 98 33 112 23 10 -8 26 -53 42 -122 13 -54 52 -226
58 -256 28 -140 103 -256 192 -295 223 -97 452 30 483 269 19 152 -22 291
-120 401 l-22 25 38 14 c92 33 83 13 83 182 0 82 -3 150 -7 150 -5 -1 -24 -9
-43 -18z m-297 -363 c84 -22 149 -116 150 -215 0 -92 -33 -141 -114 -164 -43
-13 -102 3 -127 35 -21 26 -49 114 -81 250 -30 127 -34 119 57 111 42 -4 94
-11 115 -17z"/>
<path d="M14395 10050 c-175 -20 -320 -105 -400 -236 -58 -94 -92 -272 -74
-386 15 -93 16 -100 28 -133 42 -111 119 -200 221 -253 35 -17 69 -32 76 -32
12 0 21 34 43 165 25 146 26 133 -16 150 -80 33 -123 96 -123 176 0 116 92
216 214 234 25 4 49 8 53 9 5 0 10 -170 13 -378 l5 -380 65 2 c207 7 395 77
490 184 178 203 166 557 -27 727 -26 23 -55 48 -63 56 -25 22 -131 67 -190 80
-75 18 -230 25 -315 15z m369 -346 c87 -49 128 -143 107 -240 -7 -30 -16 -54
-20 -54 -4 0 -14 -12 -21 -26 -19 -34 -82 -69 -148 -83 -29 -6 -55 -11 -57
-11 -3 0 -5 101 -5 225 l0 226 51 -7 c29 -4 70 -17 93 -30z"/>
<path d="M1189 9126 c-109 -24 -175 -70 -216 -150 -39 -77 -53 -135 -53 -225
0 -84 29 -199 57 -229 7 -7 13 -18 13 -22 0 -5 25 -34 55 -65 l55 -55 -80 0
-80 0 0 -145 0 -145 575 0 575 0 0 155 0 155 -342 0 c-439 0 -488 11 -552 113
-69 112 -45 241 54 292 48 25 197 35 528 35 l312 0 0 150 0 150 -422 -1 c-295
-1 -440 -5 -479 -13z"/>
<path d="M13940 8605 l0 -155 296 0 c296 0 405 -8 478 -36 117 -45 156 -145
101 -254 -29 -56 -29 -60 -13 -60 12 0 163 -52 212 -74 29 -12 27 -13 -105
-65 -74 -29 -143 -57 -154 -62 -51 -22 -339 -139 -415 -168 -47 -18 -94 -37
-105 -42 -11 -5 -81 -33 -155 -63 l-135 -54 0 -138 0 -138 235 -94 c129 -52
254 -103 277 -113 24 -11 49 -19 56 -19 7 0 17 -4 22 -9 6 -5 30 -16 55 -24
25 -8 126 -47 225 -87 99 -40 201 -81 228 -91 l47 -19 -2 161 -3 161 -45 15
c-25 7 -54 18 -65 23 -11 4 -47 18 -80 30 -33 12 -69 26 -80 30 -11 4 -47 18
-80 30 -33 12 -69 26 -80 30 -11 4 -36 13 -55 20 -19 7 -44 16 -55 21 -11 4
-56 20 -99 34 -44 14 -87 30 -95 35 -18 10 -28 5 94 45 44 14 105 35 135 47
30 11 73 27 95 35 22 9 49 19 60 24 11 4 76 28 145 52 69 25 144 53 168 62
l42 17 0 159 c0 101 -4 159 -10 159 -6 0 -4 15 5 36 8 20 20 64 26 99 19 113
-22 199 -136 282 l-30 22 73 1 72 0 0 145 0 145 -575 0 -575 0 0 -155z"/>
<path d="M2050 7853 c-109 -48 -144 -52 -485 -52 -336 1 -407 -6 -475 -42 -49
-26 -62 -38 -98 -90 -50 -75 -72 -175 -72 -337 0 -289 70 -412 284 -497 22 -8
41 -14 43 -12 2 2 12 57 23 122 11 65 22 126 25 136 5 13 -3 22 -32 36 -41 19
-70 45 -92 83 -20 35 -18 187 4 229 20 39 90 74 138 69 30 -3 32 -6 53 -78 12
-41 34 -131 48 -200 56 -255 106 -344 230 -401 69 -32 196 -32 279 0 52 20
142 120 166 186 29 76 32 221 7 307 -16 54 -82 168 -105 182 -25 16 -8 35 44
51 l55 16 0 154 c0 85 -1 155 -2 154 -2 0 -19 -8 -38 -16z m-315 -364 c92 -25
156 -112 157 -214 2 -107 -55 -172 -148 -171 -85 2 -108 32 -149 197 -14 57
-30 120 -35 140 -6 20 -10 41 -10 48 0 15 131 15 185 0z"/>
<path d="M13940 6505 l0 -155 575 0 575 0 0 155 0 155 -575 0 -575 0 0 -155z"/>
<path d="M15240 6505 l0 -156 143 3 142 3 3 153 3 152 -146 0 -145 0 0 -155z"/>
<path d="M510 6405 l0 -155 140 0 140 0 0 155 0 155 -140 0 -140 0 0 -155z"/>
<path d="M14436 6110 c-264 -32 -431 -154 -492 -359 -63 -214 -18 -447 111
-576 56 -57 184 -125 261 -139 19 -4 22 2 28 42 3 26 13 83 21 127 23 126 23
128 -32 145 -107 31 -159 95 -162 199 -5 166 145 262 391 248 109 -5 196 -32
240 -73 38 -37 49 -57 64 -122 13 -55 7 -95 -22 -159 -15 -33 -86 -83 -118
-83 -26 0 -28 -19 -12 -111 8 -46 18 -100 21 -119 13 -72 16 -80 29 -80 31 0
179 86 222 129 147 146 175 458 60 670 -75 139 -231 235 -416 256 -111 12
-126 13 -194 5z"/>
<path d="M2050 6014 c-99 -44 -114 -46 -505 -54 -263 -5 -392 -12 -420 -21
-24 -7 -60 -33 -90 -63 -90 -91 -114 -173 -114 -381 0 -270 63 -399 233 -479
49 -23 96 -37 96 -28 0 14 41 238 46 254 4 13 -2 21 -22 28 -40 16 -87 59
-103 94 -7 18 -13 66 -13 112 0 126 35 173 134 177 l52 2 22 -75 c19 -65 55
-224 70 -306 3 -15 9 -35 15 -46 5 -10 7 -18 4 -18 -3 0 0 -12 8 -27 8 -16 23
-45 33 -66 24 -50 99 -127 123 -127 4 0 21 -7 37 -15 47 -23 136 -29 204 -14
33 7 60 16 60 20 0 4 11 10 24 13 38 9 122 109 146 174 43 111 25 320 -32 397
-5 6 -26 35 -48 65 l-40 54 60 19 60 19 0 154 c0 85 -1 154 -2 154 -2 -1 -19
-8 -38 -16z m-321 -363 c57 -11 89 -36 127 -99 35 -58 45 -101 37 -161 -10
-77 -105 -145 -176 -127 -29 7 -87 58 -87 77 0 8 -4 19 -8 25 -5 5 -19 54 -31
109 -13 55 -27 110 -32 123 -21 55 -15 62 59 62 37 -1 87 -5 111 -9z"/>
<path d="M14410 4899 c-150 -15 -256 -61 -350 -150 -122 -116 -171 -333 -126
-556 3 -12 10 -32 17 -45 7 -13 12 -25 12 -28 -3 -21 50 -101 94 -145 51 -50
157 -115 188 -115 13 0 20 27 44 163 24 137 25 133 -17 152 -82 38 -122 96
-122 177 1 121 95 219 225 234 l55 7 0 -377 0 -376 73 0 c142 1 305 43 392
101 86 59 160 154 192 249 21 60 34 182 27 245 -15 131 -57 219 -154 317 -116
117 -318 171 -550 147z m337 -336 c84 -34 144 -144 128 -231 -9 -50 -57 -123
-95 -146 -30 -17 -120 -46 -147 -46 -10 0 -13 51 -13 224 l0 224 48 -6 c26 -3
61 -11 79 -19z"/>
<path d="M1240 4395 l0 -345 135 0 135 0 0 185 0 185 98 0 98 0 36 -62 c32
-55 61 -117 59 -126 -1 -1 5 -18 13 -37 9 -20 15 -38 15 -40 -1 -3 2 -31 6
-63 15 -129 -36 -274 -124 -353 -79 -71 -88 -76 -196 -111 -61 -20 -91 -23
-230 -23 -140 0 -169 3 -228 23 -126 42 -208 111 -258 219 -51 110 -55 273 -8
373 28 60 103 134 165 162 47 22 50 25 44 53 -4 17 -12 57 -18 90 -28 158 -36
195 -46 195 -6 0 -31 -7 -56 -16 -197 -68 -313 -193 -372 -401 -30 -106 -32
-391 -4 -493 65 -236 235 -415 470 -494 209 -71 503 -62 691 19 17 7 37 15 45
19 74 28 211 139 259 209 89 130 125 231 141 397 11 125 -2 274 -35 385 -15
50 -28 95 -29 100 -10 38 -83 184 -103 203 -7 7 -13 17 -13 22 0 4 -13 22 -29
39 l-29 31 -316 0 -316 0 0 -345z"/>
<path d="M4740 1690 l0 -790 160 0 160 0 0 330 c0 308 1 330 18 330 57 0 202
-23 229 -35 41 -20 98 -78 149 -152 21 -32 45 -64 51 -71 7 -7 13 -17 13 -22
0 -5 6 -15 13 -22 8 -7 26 -34 42 -58 15 -25 66 -102 113 -172 l86 -128 193 0
193 0 -19 33 c-39 68 -86 142 -93 145 -5 2 -8 8 -8 12 0 9 -70 123 -89 146 -5
6 -16 25 -25 42 -17 34 -103 148 -151 201 -16 18 -57 52 -90 75 -54 37 -57 41
-35 44 55 7 157 45 206 78 133 88 199 247 173 416 -6 40 -14 82 -19 93 -52
128 -104 190 -200 234 -63 29 -83 34 -215 51 -33 5 -239 9 -457 9 l-398 1 0
-790z m731 511 c80 -6 116 -14 146 -30 117 -66 110 -268 -11 -330 -45 -23 -56
-24 -296 -29 l-250 -5 0 202 0 201 153 -1 c83 0 200 -4 258 -8z"/>
<path d="M7557 2474 c-9 -10 -9 -272 1 -276 4 -2 71 -2 150 0 l143 3 -3 137
-3 137 -141 3 c-77 1 -143 -1 -147 -4z"/>
<path d="M8160 1690 l0 -790 155 0 155 0 0 183 0 182 61 68 c33 37 65 67 69
67 5 0 15 -12 22 -27 27 -54 101 -188 109 -199 5 -6 20 -31 33 -55 13 -24 40
-73 60 -109 20 -36 42 -75 48 -87 11 -22 15 -23 175 -23 104 0 163 4 163 10 0
6 -11 27 -23 48 -13 20 -35 57 -49 82 -37 67 -62 109 -97 168 -17 29 -31 57
-31 62 0 6 -4 10 -9 10 -5 0 -12 11 -15 25 -4 14 -11 25 -16 25 -6 0 -10 5
-10 10 0 6 -18 40 -40 76 -22 36 -40 68 -40 69 0 2 -16 31 -36 65 -19 33 -34
67 -32 75 2 8 42 54 89 102 47 49 132 139 188 201 l102 112 -189 0 -189 0 -39
-43 c-88 -97 -163 -184 -190 -217 -15 -19 -46 -54 -68 -78 l-41 -43 -5 408 -5
408 -152 3 -153 3 0 -791z"/>
<path d="M10941 2379 c-62 -38 -116 -69 -118 -69 -3 0 -18 -9 -34 -20 -28 -21
-28 -22 -31 -133 l-3 -112 -67 -3 -68 -3 0 -119 0 -120 70 0 70 0 0 -360 c0
-342 1 -362 21 -416 33 -88 97 -134 211 -152 88 -14 284 17 296 46 4 13 -16
222 -22 230 -2 1 -25 -5 -52 -13 -70 -21 -92 -19 -125 14 l-29 30 2 308 3 308
103 3 102 3 0 119 0 119 -102 3 -103 3 0 203 c0 111 -2 202 -5 201 -3 0 -56
-32 -119 -70z"/>
<path d="M3574 2121 c-209 -33 -381 -183 -441 -385 -22 -73 -20 -236 3 -306
55 -168 196 -306 363 -356 87 -26 239 -23 321 6 248 88 400 331 361 578 -20
136 -65 223 -158 313 -47 46 -141 112 -163 114 -3 1 -30 8 -60 17 -71 21 -161
29 -226 19z"/>
<path d="M12335 2123 c-71 -9 -171 -48 -240 -94 -107 -72 -185 -185 -222 -324
-13 -49 -5 -231 12 -275 68 -181 187 -300 355 -355 84 -28 245 -25 330 5 64
22 139 67 191 112 35 31 99 112 99 127 0 6 4 11 8 11 5 0 22 37 37 83 87 247
-18 519 -250 647 -87 48 -222 75 -320 63z"/>
<path d="M6583 2045 c-77 -19 -143 -54 -188 -101 -42 -43 -98 -138 -109 -186
-6 -26 -4 -27 41 -33 27 -3 66 -10 88 -15 22 -5 57 -12 78 -15 21 -3 44 -8 51
-11 8 -3 21 12 34 38 37 80 93 108 207 104 114 -3 160 -39 171 -132 l6 -51
-44 -15 c-41 -15 -90 -28 -180 -47 -131 -28 -159 -35 -223 -54 -184 -55 -272
-174 -262 -354 9 -157 132 -278 306 -300 135 -18 276 21 377 103 24 20 47 34
50 32 3 -3 7 -17 10 -32 2 -14 9 -37 14 -51 l10 -25 150 0 c82 0 150 3 150 8
0 4 -9 30 -20 59 -33 88 -40 168 -41 499 -1 279 -3 326 -19 378 -31 99 -115
167 -245 201 -70 19 -337 18 -412 0z m373 -715 c-6 -101 -14 -127 -51 -164
-56 -58 -157 -91 -226 -73 -106 26 -153 147 -88 222 17 19 37 35 45 35 8 0 22
4 32 9 9 5 35 14 57 20 141 37 193 49 214 50 l24 1 -7 -100z"/>
<path d="M9735 2041 c-99 -29 -156 -62 -230 -132 -73 -70 -116 -141 -148 -244
-68 -219 -20 -472 116 -622 57 -62 124 -102 227 -136 139 -46 272 -49 422 -9
64 17 151 74 221 146 74 75 113 142 143 246 25 88 26 270 0 354 -57 190 -203
343 -375 394 -84 24 -298 26 -376 3z m301 -256 c45 -21 108 -94 130 -151 15
-39 19 -75 19 -174 0 -119 -1 -128 -30 -184 -68 -134 -210 -192 -337 -137 -48
21 -125 93 -140 131 -76 192 -31 421 98 500 76 48 179 54 260 15z"/>
<path d="M7550 1428 c0 -444 -3 -620 -12 -644 -16 -46 -60 -67 -130 -63 l-57
4 -14 -60 c-24 -97 -41 -194 -36 -200 3 -2 43 -12 90 -21 189 -36 358 20 417
138 40 81 42 126 42 803 l0 655 -150 0 -150 0 0 -612z"/>
</g>
</svg>
